<svg width="32" height="32" viewBox="0 0 32 32" fill="none" xmlns="http://www.w3.org/2000/svg">
<path d="M8 12.822V3C8 2.73478 8.10536 2.48043 8.29289 2.29289C8.48043 2.10536 8.73478 2 9 2C9.26522 2 9.51957 2.10536 9.70711 2.29289C9.89464 2.48043 10 2.73478 10 3V12.822C10.5852 12.6151 11.0917 12.2318 11.4499 11.725C11.8081 11.2181 12.0003 10.6127 12 9.992V3C12 2.73478 12.1054 2.48043 12.2929 2.29289C12.4804 2.10536 12.7348 2 13 2C13.2652 2 13.5196 2.10536 13.7071 2.29289C13.8946 2.48043 14 2.73478 14 3V9.992C14.0002 11.1447 13.6022 12.262 12.8733 13.1549C12.1444 14.0478 11.1294 14.6615 10 14.892V29C10 29.2652 9.89464 29.5196 9.70711 29.7071C9.51957 29.8946 9.26522 30 9 30C8.73478 30 8.48043 29.8946 8.29289 29.7071C8.10536 29.5196 8 29.2652 8 29V14.892C6.87064 14.6615 5.8556 14.0478 5.12669 13.1549C4.39778 12.262 3.99976 11.1447 4 9.992V3C4 2.73478 4.10536 2.48043 4.29289 2.29289C4.48043 2.10536 4.73478 2 5 2C5.26522 2 5.51957 2.10536 5.70711 2.29289C5.89464 2.48043 6 2.73478 6 3V9.992C5.99967 10.6127 6.19186 11.2181 6.55006 11.725C6.90826 12.2318 7.41484 12.6151 8 12.822ZM21 17.89C18.162 17.254 16 13.964 16 10C16 5.58 18.686 2 22 2C25.314 2 28 5.58 28 10C28 13.964 25.838 17.254 23 17.89V29C23 29.2652 22.8946 29.5196 22.7071 29.7071C22.5196 29.8946 22.2652 30 22 30C21.7348 30 21.4804 29.8946 21.2929 29.7071C21.1054 29.5196 21 29.2652 21 29V17.89ZM22 16C24.064 16 26 13.42 26 10C26 6.58 24.064 4 22 4C19.936 4 18 6.58 18 10C18 13.42 19.936 16 22 16Z" fill="white"/>
</svg>
